<?xml version="1.0" standalone="no"?>
<!DOCTYPE svg PUBLIC "-//W3C//DTD SVG 20010904//EN"
 "http://www.w3.org/TR/2001/REC-SVG-20010904/DTD/svg10.dtd">
<svg version="1.0" xmlns="http://www.w3.org/2000/svg"
 width="512.000000pt" height="512.000000pt" viewBox="0 0 512.000000 512.000000"
 preserveAspectRatio="xMidYMid meet">
<metadata>
Created by potrace 1.14, written by Peter Selinger 2001-2017
</metadata>
<g transform="translate(0.000000,512.000000) scale(0.100000,-0.100000)"
fill="#000000" stroke="none">
<path d="M2907 5034 c-1 -1 -45 -4 -97 -7 -83 -5 -116 -10 -216 -31 -11 -2
-39 -10 -62 -17 l-42 -12 50 -17 c66 -22 100 -55 100 -94 0 -24 -12 -42 -61
-88 -81 -78 -195 -131 -329 -154 -86 -15 -138 -25 -157 -28 -11 -3 -43 -8 -70
-12 -26 -3 -57 -8 -68 -10 -11 -2 -58 -9 -105 -14 -111 -13 -227 -50 -343
-109 -197 -100 -307 -193 -364 -309 -50 -102 -39 -271 24 -369 8 -12 12 -26 9
-31 -3 -5 -40 -21 -81 -36 -260 -92 -352 -258 -256 -461 30 -64 98 -162 140
-199 11 -11 21 -23 21 -28 0 -16 -64 -36 -138 -42 -87 -8 -141 -28 -174 -64
-48 -54 -58 -116 -31 -183 15 -35 101 -109 127 -109 15 -1 7 -8 -26 -25 -86
-45 -124 -125 -98 -205 11 -35 11 -40 -9 -61 -17 -19 -33 -62 -36 -104 -1 -12
13 -78 50 -240 15 -66 28 -127 30 -135 2 -9 10 -45 19 -81 12 -50 75 -323 91
-399 2 -8 13 -58 25 -110 24 -101 69 -302 76 -335 2 -11 7 -31 10 -45 18 -76
30 -132 39 -172 2 -13 13 -61 25 -106 11 -46 18 -88 14 -93 -3 -5 0 -9 5 -9 6
0 11 -9 11 -19 0 -10 14 -76 30 -146 17 -70 32 -133 33 -139 2 -11 14 -23 54
-56 20 -18 27 -20 49 -20 9 0 12 -5 8 -13 -6 -9 -5 -9 7 0 10 8 19 9 25 3 5
-5 58 -6 125 -2 64 4 133 4 153 1 20 -3 39 -2 42 3 3 5 11 5 18 -1 10 -9 173
-7 181 1 7 7 185 -4 181 -11 -3 -4 13 -8 35 -9 29 -2 39 1 39 12 0 10 7 13 21
11 22 -4 160 -6 242 -3 27 1 52 -3 55 -9 9 -12 85 -16 77 -3 -8 12 24 17 61 9
18 -3 38 -3 45 2 7 4 20 4 30 -1 9 -5 19 -7 22 -3 8 7 106 8 113 0 3 -3 16 -2
29 3 15 6 29 4 41 -4 24 -15 89 -22 80 -8 -4 6 16 12 50 14 31 1 58 0 61 -5 2
-4 10 -4 16 0 15 9 178 4 192 -6 16 -12 63 -12 70 0 4 6 41 9 91 8 47 -1 87 1
91 4 3 4 14 2 24 -3 11 -6 20 -6 24 -1 3 6 15 8 28 5 64 -14 86 -15 120 -6 21
6 39 7 42 2 3 -5 14 -6 25 -2 11 4 75 4 142 0 78 -5 124 -4 126 2 2 6 11 10
20 10 10 0 26 7 36 15 24 18 40 20 30 3 -4 -7 -3 -8 5 -4 6 4 8 12 5 18 -4 6
-1 14 5 18 7 4 13 13 15 21 6 38 18 59 29 52 9 -5 8 -2 0 8 -10 12 -10 24 -2
50 6 19 12 49 14 68 2 18 9 37 16 42 9 5 10 9 3 9 -14 0 -1 69 21 113 8 16 9
25 3 21 -8 -5 -9 -1 -5 10 4 10 7 24 7 32 0 9 4 13 9 9 6 -3 8 4 6 16 -6 32 6
83 16 67 6 -9 9 -9 9 -1 0 6 -4 14 -9 17 -12 8 8 86 22 86 8 0 8 3 0 11 -7 7
-8 19 -3 33 8 19 22 92 20 98 -1 2 3 15 8 29 6 14 13 41 16 60 3 19 14 72 25
119 11 47 22 96 25 110 2 14 12 57 21 95 9 39 18 77 20 85 5 21 103 432 121
508 9 35 17 71 19 80 2 9 4 17 5 17 1 0 3 7 5 15 1 8 8 41 14 72 20 96 20 149
0 190 -11 21 -19 43 -19 51 0 21 -69 88 -102 99 l-29 10 41 35 c76 65 99 151
61 225 -13 27 -18 61 -19 128 -1 81 2 99 25 149 23 48 27 70 27 151 1 107 -12
144 -70 204 -59 61 -233 126 -335 126 -27 0 -31 3 -26 23 3 12 8 33 11 47 25
106 29 215 11 285 -48 188 -241 290 -554 295 -21 0 -16 6 30 38 44 31 61 52
94 116 37 72 40 86 42 165 2 95 -18 163 -74 244 -95 139 -297 278 -454 313
-58 13 -206 33 -212 28z"/>
</g>
</svg>
